inDegrees=no
num_controls=7
num_derivatives=13
num_iterations=104
num_multipliers=7
num_parameters=0
num_slacks=7
num_states=26
objective=4.943726
objective_accelerations=0.568478
objective_balance=0.006626
objective_effort=0.152624
objective_height=4.164980
objective_ligament=0.051018
solver_duration=1196.878003
status=Solve_Succeeded
success=true
DataType=double
version=3
OpenSimVersion=4.4-2022-07-23-0e9fedc
endheader
time	/jointset/ground_pelvis/pelvis_tilt/value	/jointset/ground_pelvis/pelvis_tx/value	/jointset/ground_pelvis/pelvis_ty/value	/jointset/hip_l/hip_flexion_l/value	/jointset/hip_l/hip_adduction_l/value	/jointset/hip_l/hip_rotation_l/value	/jointset/back/lumbar_extension/value	/jointset/patellofemoral_l/patellar_flexion_l/value	/jointset/knee_l/knee_flexion_l/value	/jointset/knee_l/knee_adduction_l/value	/jointset/knee_l/knee_rotation_l/value	/jointset/ankle_l/ankle_angle_l/value	/jointset/subtalar_l/subtalar_angle_l/value	/jointset/ground_pelvis/pelvis_tilt/speed	/jointset/ground_pelvis/pelvis_tx/speed	/jointset/ground_pelvis/pelvis_ty/speed	/jointset/hip_l/hip_flexion_l/speed	/jointset/hip_l/hip_adduction_l/speed	/jointset/hip_l/hip_rotation_l/speed	/jointset/back/lumbar_extension/speed	/jointset/patellofemoral_l/patellar_flexion_l/speed	/jointset/knee_l/knee_flexion_l/speed	/jointset/knee_l/knee_adduction_l/speed	/jointset/knee_l/knee_rotation_l/speed	/jointset/ankle_l/ankle_angle_l/speed	/jointset/subtalar_l/subtalar_angle_l/speed	/forceset/tau_hip_flexion_l	/forceset/tau_hip_adduction_l	/forceset/tau_hip_rotation_l	/forceset/tau_knee_flexion_l	/forceset/tau_ankle_angle_l	/forceset/tau_subtalar_angle_l	/forceset/tau_lumbar_extension	lambda_cid13_p0	lambda_cid13_p1	lambda_cid13_p2	lambda_cid13_p3	lambda_cid13_p4	lambda_cid13_p5	lambda_cid14_p0	/jointset/ground_pelvis/pelvis_tilt/accel	/jointset/ground_pelvis/pelvis_tx/accel	/jointset/ground_pelvis/pelvis_ty/accel	/jointset/hip_l/hip_flexion_l/accel	/jointset/hip_l/hip_adduction_l/accel	/jointset/hip_l/hip_rotation_l/accel	/jointset/back/lumbar_extension/accel	/jointset/patellofemoral_l/patellar_flexion_l/accel	/jointset/knee_l/knee_flexion_l/accel	/jointset/knee_l/knee_adduction_l/accel	/jointset/knee_l/knee_rotation_l/accel	/jointset/ankle_l/ankle_angle_l/accel	/jointset/subtalar_l/subtalar_angle_l/accel	gamma_cid13_p0	gamma_cid13_p1	gamma_cid13_p2	gamma_cid13_p3	gamma_cid13_p4	gamma_cid13_p5	gamma_cid14_p0
0	0.04902763249343202	0.107661649573695	0.9028903629441659	0.1266917050730164	-0.3698886683450127	-0.2189126400838259	-0.2144974744115991	0.2051547269257793	0.2051547269256735	-0.1744044418657771	-0.1543248254576749	0.09024399430361882	0.079114906015882	0	0	0	0	0	0	0	0	0	0	0	0	0	0.1018789808617627	-0.07205384487505635	-0.005993337631769815	-0.2311253233511899	0.1576517133876159	-0.06617778977872453	-0.03776013144621704	21.01669924636592	25.42367085792646	-4.748333513085647	-15.67463816181347	-440.4545836170818	-65.19668834059581	-26.04710422248639	-2.490716619327122	-0.9360792671182262	-0.7374170119972963	9.717896468035713	-0.1647589887235665	2.831273667268173	-3.404448733987925	9.655771666162678	9.655771666163368	1.974041560549464	-0.9329667442705355	3.288210257192637	0.7740009810204256	-2.563161348465736e-10	4.217419301594217e-07	-6.285895543714787e-08	3.581178700123469e-08	1.343146239385533e-08	1.617661219053554e-07	4.901739386030172e-08
0.01	0.04890962039483268	0.1076154675275443	0.9028546238271014	0.1271632534741761	-0.3698960134816754	-0.2187653387295562	-0.2146709793049888	0.2056253279267348	0.2056253279271313	-0.1743073630225378	-0.1543611067690075	0.09040467690717571	0.07915338165107286	-0.02351507376199317	-0.009199109571323487	-0.007125366839728845	0.09390280814975491	-0.001451800262939268	0.02933827239926861	-0.03444236601879846	0.09367417461771303	0.09367417461770755	0.01933317491392576	-0.007191400859734113	0.03197468272209905	0.007667876404452996	0.09935576763413494	-0.07901195346174106	-0.005354331395940587	-0.2279543027232813	0.1509080602129087	-0.0580030158550317	-0.03572133910085076	19.28671293032276	21.94938523032641	-3.935273721263628	-14.77269806097478	-441.1486644486398	-72.21449815591038	-26.04736986847886	-2.268802051879369	-0.9062247024929456	-0.6967253472147229	9.16544055747511	-0.132860843971086	2.966826947052047	-3.425338632575823	9.156326712612902	9.156326712611273	1.900630829456071	-0.6025178261743962	3.127832803206292	0.7590345815348339	-1.149117795059706e-08	6.444175019768253e-07	-5.713814274780093e-08	6.830247396351907e-08	-1.408864118413811e-07	1.935370647571423e-07	7.748179631025416e-08
0.02	0.04855907769904587	0.1074784148055983	0.902748305276186	0.1285616234708455	-0.3699173706806953	-0.2183283100669667	-0.2151811494778016	0.2070192879450662	0.2070192879450551	-0.1740194173542652	-0.1544673603018615	0.09088025344278071	0.0792677067725871	-0.0465061194128771	-0.01817413515906622	-0.01411588677017295	0.1853643190608317	-0.00280241248118145	0.05794546163033153	-0.06733305590706788	0.1846718033568487	0.1846718033568341	0.03817336473329679	-0.01399444449353397	0.06297878638360416	0.01516989726387771	0.09683255440927528	-0.08597006205033197	-0.004715325163867179	-0.2247832820952641	0.1441644070372832	-0.04982824193361995	-0.03368254675168705	17.59944909310441	18.47709800906427	-3.133362375650134	-13.93065135609707	-441.0921298166053	-79.0789519960486	-26.04791510347154	-2.38591099710093	-0.8912624704061951	-0.7104476301401845	9.229637020300892	-0.1445213797844857	2.68505703362683	-3.094113507879899	9.120462490447705	9.120462490447657	1.875444541637952	-0.8552952990845446	3.094094445068911	0.7408298720129544	-2.272603976634754e-08	8.670930737942288e-07	-5.141733005845399e-08	1.007931609258034e-07	-2.952042860766176e-07	2.253080076089291e-07	1.059461987602066e-07
0.03	0.04798084977062934	0.1072526324122938	0.9025724974719127	0.130863305947877	-0.3699517549839961	-0.2176097427236708	-0.216012423026998	0.2093105371008279	0.2093105371009843	-0.1735455552124702	-0.1546406341301051	0.0916610749405458	0.07945624448849212	-0.06905370111242208	-0.02695344487558332	-0.02104267845137448	0.2745839843690664	-0.004064711991697336	0.08565951281629873	-0.09869754896159917	0.273140001874317	0.2731400018743196	0.05648507698317921	-0.02057390635770089	0.09301167953666899	0.02250059394058412	0.09406918190484764	-0.08234055146899615	-0.004057257595556066	-0.2217548191428563	0.1401257475171124	-0.05111156372519236	-0.03155370164050406	16.21931901724458	19.17819304706844	-3.133306864035756	-12.98213588908036	-441.163679509599	-77.09210131529716	-26.04838820412111	-2.176312004509924	-0.8669101496269334	-0.683405256015451	8.70990183003031	-0.115745852300151	2.798339693257677	-3.124001451648619	8.644273335022039	8.644273335023847	1.792079411537867	-0.546338207224994	2.931836039377649	0.7235013045416155	-3.05266076242367e-08	9.841695298017321e-07	-3.849915550305129e-08	1.204596967404536e-07	-4.069251132888828e-07	2.290275808114677e-07	1.213645052363624e-07
0.04	0.04717971997544494	0.1069399279363395	0.9023274996870415	0.1340455391864832	-0.3699984946055789	-0.2166172827620702	-0.2171506183562995	0.2124733232027091	0.2124733232026995	-0.1728919669794615	-0.1548771158916464	0.09273701522757379	0.07971695151897543	-0.0910864927367372	-0.03555855168900395	-0.02795388288979411	0.3614744714348202	-0.005273476126941053	0.1127239852893256	-0.128717411911982	0.3589791924967964	0.3589791924968179	0.07411858302807928	-0.02663603130764218	0.1220025442477757	0.02960376017897022	0.09130580939854116	-0.07871104088691588	-0.003399190031946026	-0.2187263561899807	0.1360870879972789	-0.05239488551580159	-0.02942485653127083	14.87837803511328	19.88359915405158	-3.146702991674276	-12.08573901836928	-440.5386255577491	-74.95495470434264	-26.0480945328704	-2.282952982050781	-0.8564218897909055	-0.7073301815836379	8.763801371805508	-0.1338143047302556	2.555141291038506	-2.825187487048072	8.594660911450442	8.594660911450708	1.739803300641108	-0.7518279162402332	2.885688756672501	0.6953237843472256	-3.82563652974277e-08	1.09906868445233e-06	-2.543258173391546e-08	1.398618170675236e-07	-5.177676508718086e-07	2.321687752583515e-07	1.365138200429553e-07
0.05	0.04616044699832774	0.1065420644799118	0.9020132639176184	0.1380857737099404	-0.370056987656121	-0.2153587453728248	-0.2185817551539694	0.2164820977073223	0.2164820977072049	-0.1720652159522881	-0.1551729850384325	0.09409789223062837	0.08004773159550946	-0.1126753325991607	-0.04398118881399134	-0.0349031112208402	0.4461740658091813	-0.006405480470156519	0.1388606585571247	-0.1572798665466031	0.4423383849015459	0.4423383849015868	0.09112465497626772	-0.03244786750293017	0.1500040304220676	0.03652939000279094	0.0881784014085128	-0.0771796520772258	-0.002593013019132589	-0.215784803041486	0.131295770087235	-0.05137505415807376	-0.02705430759256582	13.41635829882615	19.58780464325915	-2.975187704432843	-11.18414208536189	-440.1567629142116	-74.87772037529945	-26.04627519366981	-2.082924373488894	-0.8302138882079634	-0.6902996415236897	8.263283684125913	-0.1001053084852567	2.624543675272426	-2.837262284876136	8.140922453732985	8.140922453734957	1.665149893771301	-0.4824012666087842	2.732086240561992	0.6875829895651601	-4.149915229082757e-08	1.141056546378007e-06	-4.046860063313194e-08	1.504650628681469e-07	-5.814202301185502e-07	2.512668834902507e-07	1.453591774500788e-07
0.06	0.04492807064542124	0.106060968799351	0.9016292197683511	0.142961053219904	-0.3701262431120201	-0.2138425185847819	-0.2202916140646211	0.2213113389456517	0.2213113389456517	-0.1710715760552192	-0.1555242805064087	0.09573372563397445	0.08044704805191705	-0.1337071678671017	-0.05220499651560482	-0.04191555885866014	0.5284834687384065	-0.007425957188077652	0.1642618650497632	-0.1844618345090248	0.5230725392561069	0.5230725392561631	0.1074963569989546	-0.03772129551568059	0.1769938243064762	0.04331103615319903	0.08505099341973689	-0.07564826326762537	-0.001786836005413519	-0.2128432498926168	0.1265044521773321	-0.05035522280041362	-0.02468375865285037	11.9901568599627	19.29495149371434	-2.814666473927939	-10.32798097327742	-439.1421589389352	-74.6634043658824	-26.0418948276695	-2.171552063150218	-0.8166560051200163	-0.7199740429382426	8.285763082779074	-0.1115087796714829	2.408047936006128	-2.549090152606087	8.069653301413252	8.069653301412673	1.612929315540583	-0.6441462797335499	2.683350298691226	0.6665270496631513	-4.455301420297306e-08	1.179974459136319e-06	-5.668788659206851e-08	1.606978297413409e-07	-6.430858637511366e-07	2.710368617762557e-07	1.539391050719614e-07
0.07000000000000001	0.04348763395729014	0.1054986318792621	0.9011745425842965	0.148648505534947	-0.3702051249790642	-0.2120771256642056	-0.2222660280759439	0.2269357285881606	0.2269357285883503	-0.1699171930386643	-0.1559269544567936	0.09763468933063139	0.08091360290087395	-0.1542900959299547	-0.06022670708802809	-0.04904120663666129	0.6086130343814259	-0.008329913482167316	0.188694262561554	-0.2102056095492621	0.6013734043050314	0.6013734043050504	0.1232658715857618	-0.04271580711417142	0.2030333145062301	0.04998055090782592	0.08185366044245959	-0.07350417453436749	-0.0009466508337981484	-0.2103865716154631	0.122291976119877	-0.04971671623591281	-0.02228703300181782	10.71320746651399	19.1691375828011	-2.712257712494185	-9.575627836761704	-438.3898317992032	-74.09056628829669	-26.03389799780268	-1.988138869925429	-0.789544268061627	-0.7121888120925861	7.817461267637058	-0.07692671327451961	2.442513706044192	-2.554717443260444	7.645474472133556	7.645474472128029	1.542001362200115	-0.4124860019970862	2.53944185715611	0.6640781902511287	-4.435428692615494e-08	1.128672119984667e-06	-8.171776948885457e-08	1.602515643491095e-07	-6.653322689882669e-07	2.808332440018766e-07	1.527220997114359e-07
0.08	0.04184407284998862	0.1048571547164864	0.9006479431890889	0.1551254350987826	-0.3702924639408479	-0.2100710731589538	-0.2244914190903879	0.2333301611544543	0.2333301611544621	-0.1686085071094842	-0.156376650003293	0.09979108662461389	0.08144623579775662	-0.1743320516751539	-0.06803304505295031	-0.05630000108929805	0.6863789185273599	-0.009117376136052046	0.2123937819644761	-0.2346572351301602	0.6770811239739941	0.6770811239739779	0.1383569394504761	-0.04712561479631522	0.2280805437674698	0.05652664573795418	0.0786563274642077	-0.071360085801479	-0.0001064656637815811	-0.20792989333892	0.1180795000620443	-0.04907820967190314	-0.01989030735109258	9.468328591805506	19.04691374030935	-2.620937353588644	-8.858901021326062	-437.0661793208973	-73.38901386589201	-26.02101337733442	-2.06335759961561	-0.7735814836235522	-0.7466033778652117	7.813026783362735	-0.08821005163064706	2.261472314232133	-2.290660260736329	7.55102422542138	7.551024225421206	1.477239971121828	-0.5272054964649829	2.484898110983964	0.6418430647619358	-4.39457151855327e-08	1.071549119419469e-06	-1.073160779945341e-07	1.591163291333024e-07	-6.850354981998838e-07	2.899861684171501e-07	1.50873034158497e-07
